<svg id="Layer_2" data-name="Layer 2" xmlns="http://www.w3.org/2000/svg" viewBox="0 0 147.83 81.69"><defs><style>.cls-1,.cls-2{fill:#ffe9b3;}.cls-2{font-size:7.48px;font-family:Arial-BoldMT, Arial;font-weight:700;}.cls-3{letter-spacing:-0.09em;}.cls-4{letter-spacing:0em;}</style></defs><title>meyers_logo</title><polygon class="cls-1" points="7.53 0 23.46 8.31 39.22 0 39.22 30.34 29.22 30.34 29.22 22.21 27.02 22.21 27.19 30.34 19.73 30.34 19.56 22.29 17.36 22.29 17.36 30.34 7.53 30.34 7.53 0"/><polygon class="cls-1" points="57.36 0 71.43 0 71.43 10.51 72.79 10.51 72.79 0 86.18 0 78.04 15.17 78.21 30.34 66.17 30.34 66.51 14.41 57.36 0"/><polygon class="cls-1" points="87.03 0 87.03 30.34 111.27 30.34 111.27 19.83 96.01 19.83 96.01 17.97 106.18 17.8 106.01 10.17 96.01 10.34 96.01 8.22 100.75 8.13 100.92 0 87.03 0"/><path class="cls-1" d="M114.6.9l.16,9L126,10v1.95H114.69l-.08,19.15h9.73l-.07-8H126l.17,8h13l-5.59-11.53c6.95-5,4.83-15.68-3.05-18.65Z" transform="translate(-2.66 -0.73)"/><path class="cls-1" d="M2.66,33.19v14H16.22v2.27H2.66V63.53H17.49c17.71-5.35,14.49-27.58,0-30.34Z" transform="translate(-2.66 -0.73)"/><path class="cls-1" d="M76.9,39l-4.75,4.11C82.58,51.69,76,63.06,67.92,63.46a11.72,11.72,0,0,1-12.71-8.63L59.45,51c-5.93-6.77-3.56-14.43,2-16.69S73.81,34.06,76.9,39Z" transform="translate(-2.66 -0.73)"/><rect class="cls-1" x="76.79" y="32.48" width="10.68" height="30.32"/><path class="cls-1" d="M109.11,48.41l11.27-6.51c-4.24-7.33-8.13-9-16.78-8.71-7.49.89-13.34,8.3-12.83,16.12s6.81,14.18,13.93,14.32c3.47.07,8.48-.73,10.09-3.09l.08,7.49H122V48.41Z" transform="translate(-2.66 -0.73)"/><polygon class="cls-1" points="120.18 32.46 120.18 62.8 127.98 62.8 127.98 53.65 130.86 53.65 130.86 62.8 145.27 62.8 145.27 32.46 136.37 32.46 136.54 41.19 120.18 32.46"/><polygon class="cls-1" points="41.17 0.09 41.17 30.43 65.41 30.43 65.41 19.92 50.16 19.92 50.16 18.05 60.33 17.88 60.16 10.26 50.16 10.43 50.16 8.31 54.9 8.22 55.07 0.09 41.17 0.09"/><polygon class="cls-1" points="27.63 32.46 27.63 62.8 51.87 62.8 51.87 52.29 36.61 52.29 36.61 50.43 46.78 50.26 46.61 42.63 36.61 42.8 36.61 40.68 41.35 40.59 41.52 32.46 27.63 32.46"/><text class="cls-2" transform="translate(2.56 76.64) scale(1.02 1)">PL<tspan class="cls-3" x="9.55" y="0">A</tspan><tspan class="cls-4" x="14.27" y="0">YGROUND EQUIPMENT &amp; DESIGN</tspan></text><text x="-2.66" y="-0.73"></text></svg>